<svg width="31" height="32" viewBox="0 0 31 32" fill="none" xmlns="http://www.w3.org/2000/svg">
<path d="M28.2353 28.2353H1.88235C0.842758 28.2353 0 29.0781 0 30.1177C0 31.1573 0.842758 32 1.88235 32H28.2353C29.2749 32 30.1176 31.1573 30.1176 30.1177C30.1176 29.0781 29.2749 28.2353 28.2353 28.2353Z" fill="#717171"/>
<path d="M0 26.3529V30.1176C0 31.1572 0.842758 32 1.88235 32C2.92195 32 3.7647 31.1572 3.7647 30.1176V26.3529C3.7647 25.3133 2.92195 24.4706 1.88235 24.4706C0.842758 24.4706 0 25.3133 0 26.3529Z" fill="#717171"/>
<path d="M26.3529 26.3529V30.1176C26.3529 31.1572 27.1957 32 28.2353 32C29.2749 32 30.1176 31.1572 30.1176 30.1176V26.3529C30.1176 25.3133 29.2749 24.4706 28.2353 24.4706C27.1957 24.4706 26.3529 25.3133 26.3529 26.3529Z" fill="#717171"/>
<path d="M15.0588 22.5882C14.6686 22.5912 14.2871 22.4728 13.9671 22.2494L6.43765 16.9412C6.03183 16.6533 5.7565 16.2164 5.67185 15.7262C5.58719 15.2359 5.7001 14.732 5.98588 14.3247C6.12854 14.1211 6.31011 13.9478 6.5201 13.8148C6.7301 13.6817 6.96437 13.5916 7.20938 13.5496C7.4544 13.5076 7.7053 13.5146 7.94762 13.5701C8.18993 13.6256 8.41886 13.7285 8.62118 13.8729L15.0588 18.3718L21.4588 13.5529C21.8582 13.2534 22.3602 13.1248 22.8544 13.1954C23.3486 13.266 23.7946 13.53 24.0941 13.9294C24.3936 14.3288 24.5223 14.8308 24.4517 15.325C24.3811 15.8192 24.117 16.2652 23.7176 16.5647L16.1882 22.2118C15.8624 22.4561 15.4661 22.5882 15.0588 22.5882Z" fill="#717171"/>
<path d="M15.0588 18.8235C14.5596 18.8235 14.0808 18.6252 13.7278 18.2722C13.3748 17.9192 13.1765 17.4404 13.1765 16.9412V1.88235C13.1765 1.38312 13.3748 0.904338 13.7278 0.551328C14.0808 0.198319 14.5596 0 15.0588 0C15.5581 0 16.0368 0.198319 16.3898 0.551328C16.7429 0.904338 16.9412 1.38312 16.9412 1.88235V16.9412C16.9412 17.4404 16.7429 17.9192 16.3898 18.2722C16.0368 18.6252 15.5581 18.8235 15.0588 18.8235Z" fill="#717171"/>
</svg>
